# xmcd CD database file
# Copyright (C) 1995-1998 Ti Kan
#
# Track frame offsets:
#	150
#	15790
#	36380
#	52650
#	66202
#	80257
#	90920
#	105627
#	117900
#	133865
#	142317
#	154675
#	164685
#	174367
#	186142
#	197807
#	210630
#	227170
#	239722
#	251075
#	265697
#	280887
#	296085
#	306790
#	319067
#	330772
#
# Disc length: 4678 seconds
#
# Revision: 3
# Processed by: cddbd v1.4PL0 Copyright (c) Steve Scherf et al.
# Submitted via: CDex 1.30Release
#
DISCID=7012441a
DTITLE=Ukendt - Ukendt
DYEAR=1900
DGENRE=Blues
TTITLE0=Spor 1
TTITLE1=Spor 2
TTITLE2=Spor 3
TTITLE3=Spor 4
TTITLE4=Spor 5
TTITLE5=Spor 6
TTITLE6=Spor 7
TTITLE7=Spor 8
TTITLE8=Spor 9
TTITLE9=Spor 10
TTITLE10=Spor 11
TTITLE11=Spor 12
TTITLE12=Spor 13
TTITLE13=Spor 14
TTITLE14=Spor 15
TTITLE15=Spor 16
TTITLE16=Spor 17
TTITLE17=Spor 18
TTITLE18=Spor 19
TTITLE19=Spor 20
TTITLE20=Spor 21
TTITLE21=Spor 22
TTITLE22=Spor 23
TTITLE23=Spor 24
TTITLE24=Spor 25
TTITLE25=Spor 26
EXTD=ID3G:   0
EXTT0=
EXTT1=
EXTT2=
EXTT3=
EXTT4=
EXTT5=
EXTT6=
EXTT7=
EXTT8=
EXTT9=
EXTT10=
EXTT11=
EXTT12=
EXTT13=
EXTT14=
EXTT15=
EXTT16=
EXTT17=
EXTT18=
EXTT19=
EXTT20=
EXTT21=
EXTT22=
EXTT23=
EXTT24=
EXTT25=
PLAYORDER=
